<svg width="36" height="35" viewBox="0 0 36 35" fill="none" xmlns="http://www.w3.org/2000/svg">
<path d="M36 9.01385L35.3042 8.19003L28.3894 0L11.9869 0.0111609L11.3138 0.0118585L10.4497 0.740807L0.299983 9.30752L7.67473 17.8296L0.875122 23.7672L0 24.5317L0.741337 25.4169L7.02304 32.9157L23.5449 34.954L23.9207 35L24.9255 34.1225L34.8683 25.44L27.3239 16.9228L35.0814 9.85022L36 9.01385ZM27.6357 1.65531L33.1788 8.22073L19.1148 8.42441L13.3882 1.66507L27.6357 1.65531ZM11.5145 1.99781L17.5914 9.1701L8.91328 16.7484L2.63433 9.49238L11.5145 1.99781ZM7.85679 31.3518L3.05776 25.6227L11.2518 26.3496L15.8101 26.7542L21.6836 33.0566L7.85679 31.3518ZM32.5381 25.2886L23.8476 32.8773L17.3645 26.0022L26.1088 18.0305L32.5381 25.2886ZM26.2323 15.6902L15.9087 25.1016L12.3117 24.7822L3.1481 23.9695L13.5254 14.9075L19.0527 10.0811L19.1079 10.0804L32.5995 9.8865L26.2323 15.6902Z" fill="white"/>
</svg>
